<?xml version="1.0" standalone="no"?>
<!DOCTYPE svg PUBLIC "-//W3C//DTD SVG 20010904//EN"
 "http://www.w3.org/TR/2001/REC-SVG-20010904/DTD/svg10.dtd">
<svg version="1.0" xmlns="http://www.w3.org/2000/svg"
 width="200.000000pt" height="200.000000pt" viewBox="0 0 200.000000 200.000000"
 preserveAspectRatio="xMidYMid meet">

<g transform="translate(0.000000,200.000000) scale(0.100000,-0.100000)"
fill="#000000" stroke="none">
<path d="M1067 1135 l-28 -35 139 0 140 0 26 35 27 35 -138 0 -138 0 -28 -35z"/>
<path d="M1360 772 c-27 -22 -18 -47 22 -58 48 -14 49 -36 2 -32 -22 1 -39 -2
-39 -7 0 -18 78 -18 91 0 18 24 7 42 -32 55 -42 14 -39 36 5 34 33 -2 42 10
15 20 -25 10 -40 7 -64 -12z"/>
<path d="M1470 725 c0 -37 4 -65 10 -65 6 0 10 11 10 24 0 27 26 59 41 51 5
-4 9 -22 9 -41 0 -24 5 -34 15 -34 10 0 15 10 15 34 0 43 -23 68 -56 60 -20
-5 -24 -2 -24 15 0 12 -4 21 -10 21 -6 0 -10 -28 -10 -65z"/>
<path d="M1837 762 c-2 -11 -2 -37 2 -58 5 -34 10 -39 36 -42 27 -2 28 -1 13
11 -21 16 -24 53 -5 61 10 5 10 7 0 12 -7 3 -13 12 -13 20 0 21 -27 17 -33 -4z"/>
<path d="M1610 740 c-24 -24 -25 -43 -4 -64 17 -18 74 -22 74 -6 0 6 -11 10
-24 10 -14 0 -28 5 -31 10 -4 6 8 10 29 10 29 0 36 4 36 20 0 18 -26 40 -49
40 -6 0 -20 -9 -31 -20z m58 -17 c2 -8 -6 -13 -22 -13 -25 0 -33 10 -19 24 10
10 36 3 41 -11z"/>
<path d="M1732 744 c-26 -18 -28 -46 -6 -68 17 -18 74 -22 74 -6 0 6 -11 10
-24 10 -14 0 -28 5 -31 10 -4 6 8 10 29 10 29 0 36 4 36 20 0 18 -26 40 -47
40 -5 0 -19 -7 -31 -16z m56 -21 c2 -8 -6 -13 -22 -13 -25 0 -33 10 -19 24 10
10 36 3 41 -11z"/>
</g>
</svg>
